<svg class="svg-icon" style="width: 1em; height: 1em;vertical-align: middle;fill: currentColor;overflow: hidden;" viewBox="0 0 1024 1024" version="1.1" xmlns="http://www.w3.org/2000/svg"><path d="M0 0h1024v1024H0z" fill="#FFFFFF00" /><path d="M512 65.4C309.2 63.7 143.9 228.8 145.4 432 142.7 605.7 416.9 872.6 493 950.3c10.4 11 27.6 11 37.9 0C607 872.5 881.2 605.7 878.5 432 880.1 228.8 714.8 63.7 512 65.4z m0 548c-105 0-189.4-85.2-189.2-189.5 0.2-104.4 84.9-188.8 189.2-188.8 104.3-0.1 189 84.4 189.2 188.8 0.2 104.3-84.2 189.5-189.2 189.5z" fill="#D43E00" /></svg>